<?xml version="1.0" standalone="no"?>
<!DOCTYPE svg PUBLIC "-//W3C//DTD SVG 20010904//EN"
 "http://www.w3.org/TR/2001/REC-SVG-20010904/DTD/svg10.dtd">
<svg version="1.0" xmlns="http://www.w3.org/2000/svg"
 width="512.000000pt" height="512.000000pt" viewBox="0 0 512.000000 512.000000"
 preserveAspectRatio="xMidYMid meet">
<metadata>
Created by potrace 1.16, written by Peter Selinger 2001-2019
</metadata>
<g transform="translate(0.000000,512.000000) scale(0.100000,-0.100000)"
fill="#000000" stroke="none">
<path d="M2522 4603 c-17 -49 -34 -104 -38 -123 -7 -34 -8 -34 -15 -10 -5 17
-7 2 -8 -44 l-1 -69 -34 39 c-19 21 -49 65 -66 97 -34 63 -51 79 -21 20 41
-84 40 -85 -46 -42 -110 56 -194 80 -300 86 -51 3 -93 4 -93 1 0 -2 15 -15 33
-28 18 -14 26 -16 18 -7 -18 23 -15 22 79 -17 91 -39 157 -88 191 -143 29 -47
37 -27 10 26 -12 22 -21 43 -21 46 0 15 109 -55 162 -103 74 -69 118 -156 154
-307 15 -63 30 -115 33 -115 4 0 21 55 39 123 39 146 68 209 128 276 71 79
214 167 184 114 -22 -40 -50 -103 -46 -103 2 0 27 29 55 64 41 53 64 71 123
100 40 20 93 40 118 44 25 5 55 14 65 21 16 10 -1 11 -90 8 -120 -5 -162 -17
-305 -85 -47 -22 -86 -40 -87 -39 0 1 14 28 33 60 18 31 30 57 26 57 -4 0 -22
-27 -41 -60 -19 -33 -50 -74 -68 -92 l-33 -32 -1 55 c0 37 -3 48 -8 34 -7 -17
-10 -12 -20 25 -22 85 -63 210 -70 210 -4 0 -21 -39 -39 -87z"/>
<path d="M2005 4470 c21 -22 41 -40 44 -40 3 0 -13 18 -34 40 -21 22 -41 40
-44 40 -3 0 13 -18 34 -40z"/>
<path d="M3104 4468 l-29 -33 33 29 c17 17 32 31 32 33 0 8 -8 1 -36 -29z"/>
<path d="M1751 4429 c-62 -12 -170 -49 -176 -60 -4 -5 -5 -9 -3 -9 2 0 30 5
63 10 33 6 73 7 89 4 24 -5 11 -12 -85 -43 -155 -51 -207 -80 -297 -163 -42
-39 -111 -93 -152 -120 -41 -28 -64 -47 -50 -44 14 4 54 9 89 13 l64 6 -19
-32 c-29 -50 -118 -144 -188 -200 -55 -44 -97 -68 -206 -119 -23 -10 -21 -11
15 -6 79 11 160 35 238 70 43 20 81 33 85 30 3 -4 -40 -53 -96 -109 -110 -111
-137 -156 -147 -247 -4 -46 -3 -51 6 -30 6 14 19 44 30 68 10 23 26 42 34 42
8 0 32 -16 53 -34 l37 -35 -67 -68 c-36 -37 -99 -111 -138 -163 -93 -123 -228
-392 -257 -511 -21 -82 -40 -219 -30 -209 2 3 14 43 26 89 21 84 55 155 87
182 14 12 14 8 -3 -26 -33 -64 -38 -95 -7 -45 42 71 121 146 190 181 36 18 66
30 69 28 2 -3 -25 -52 -61 -110 -112 -176 -247 -477 -284 -631 -11 -46 -27
-134 -35 -196 -15 -116 -28 -147 -74 -182 l-26 -21 35 17 c19 9 64 38 100 64
74 53 159 110 165 110 3 0 -6 -16 -20 -35 -53 -79 -79 -203 -91 -430 -3 -77
-10 -150 -15 -163 -5 -13 24 11 69 56 78 79 129 112 175 112 14 0 28 -7 32
-17 4 -10 10 -79 12 -154 6 -148 -1 -190 -44 -247 l-25 -34 33 17 c19 10 41
23 49 30 30 26 193 125 207 125 9 0 13 -16 13 -57 1 -62 11 -115 55 -282 20
-76 26 -119 23 -163 -4 -59 -4 -59 11 -31 13 23 16 65 16 228 0 200 0 200 29
263 45 98 54 68 27 -97 -13 -76 -21 -145 -18 -152 4 -10 6 -8 6 4 1 10 15 54
33 98 l31 80 21 -73 c21 -72 122 -274 177 -355 36 -51 154 -173 169 -173 6 0
0 15 -14 33 -50 66 -116 262 -116 346 0 52 17 35 45 -46 15 -43 34 -98 43
-123 l17 -45 3 40 c4 61 9 70 28 54 25 -21 91 -121 128 -196 42 -84 57 -160
45 -232 -4 -30 -6 -57 -4 -59 7 -8 46 88 62 156 13 49 14 75 6 118 -5 29 -8
54 -7 54 1 0 12 -17 25 -37 12 -21 44 -68 70 -104 27 -36 55 -79 64 -95 9 -18
15 -23 15 -12 0 9 -24 65 -54 125 -30 59 -53 110 -50 112 2 2 28 -12 58 -32
43 -29 69 -59 125 -144 39 -59 71 -104 71 -98 0 17 -62 199 -73 212 -5 7 -5
13 0 13 5 0 42 -30 82 -67 62 -56 81 -82 118 -157 24 -50 49 -108 55 -128 14
-47 24 -48 32 -3 10 52 81 186 125 236 22 25 65 67 96 94 l57 48 -25 -49 c-25
-50 -70 -184 -64 -190 2 -2 32 39 68 91 42 64 83 110 121 140 32 25 58 41 58
36 0 -6 -22 -56 -50 -112 -27 -56 -50 -109 -50 -117 0 -13 74 83 144 189 l31
46 0 -106 c0 -100 2 -110 33 -174 19 -38 35 -67 37 -65 2 2 -3 30 -11 63 -15
64 -10 138 11 191 16 38 146 234 168 252 13 11 16 10 22 -7 3 -10 3 -32 0 -48
-4 -23 -2 -21 15 12 11 22 20 47 20 55 1 8 16 44 35 80 l34 65 1 -36 c0 -54
-45 -203 -89 -294 -22 -44 -37 -82 -35 -84 3 -3 39 31 82 75 112 115 236 331
266 463 l12 55 32 -64 c18 -35 32 -72 32 -83 0 -11 3 -18 6 -14 3 3 -1 52 -11
109 -9 57 -15 121 -13 143 l4 40 29 -60 c30 -59 30 -62 35 -270 4 -144 9 -217
18 -232 18 -33 22 -28 10 14 -14 50 -4 129 32 254 17 57 35 142 41 189 5 46
11 86 13 88 4 4 139 -73 206 -118 30 -20 61 -40 67 -44 7 -4 -2 16 -20 45
l-32 53 2 159 c3 203 8 210 110 163 59 -28 133 -92 164 -143 27 -43 34 -37 14
13 -11 28 -16 84 -18 199 -3 140 -6 170 -29 237 -25 74 -75 174 -84 166 -2 -3
10 -45 27 -94 40 -118 68 -249 75 -359 5 -72 4 -88 -6 -78 -7 6 -18 68 -26
143 -14 137 -29 212 -63 320 -24 74 -24 80 -12 80 6 0 73 -43 151 -95 78 -52
145 -95 151 -95 5 0 -9 16 -31 36 -25 23 -41 47 -44 67 -3 18 -10 70 -17 117
-18 135 -54 258 -114 396 -67 153 -178 370 -230 448 -21 31 -35 60 -31 63 11
11 114 -45 159 -86 23 -22 58 -66 76 -100 19 -33 36 -59 38 -57 2 2 -5 27 -16
57 -11 29 -19 54 -17 56 2 2 13 -8 24 -22 24 -31 58 -116 75 -189 8 -36 12
-44 15 -28 5 31 -24 159 -55 247 -14 39 -58 138 -98 220 -81 167 -170 293
-277 389 l-63 57 39 35 c22 18 46 34 53 34 8 0 27 -28 43 -62 33 -71 35 -71
19 4 -18 86 -55 147 -150 245 -49 51 -89 96 -89 101 0 6 35 -8 78 -29 82 -42
224 -82 269 -77 23 2 14 8 -48 31 -92 34 -163 80 -239 158 -56 57 -120 143
-120 162 0 6 31 7 78 3 82 -7 83 -4 11 34 -19 10 -76 55 -125 100 -121 112
-131 117 -424 223 -32 12 48 6 114 -8 38 -8 72 -13 74 -10 7 7 -81 43 -148 60
-134 35 -348 28 -381 -11 -10 -12 2 -14 67 -15 71 -1 75 -2 40 -10 -22 -5 -47
-16 -55 -23 -9 -7 -58 -35 -109 -61 -108 -55 -199 -138 -251 -228 -18 -31 -34
-57 -37 -57 -2 0 -1 21 1 48 5 47 5 47 -42 -47 -30 -61 -55 -129 -69 -190
l-22 -96 -16 60 c-28 100 -87 268 -108 305 -10 19 -16 26 -13 15 3 -10 9 -40
12 -65 l6 -45 -30 40 c-16 22 -39 57 -52 77 -54 90 -244 216 -396 264 -39 12
-39 13 44 13 69 1 82 3 72 15 -24 29 -229 45 -330 25z m44 -125 c-28 -14 -105
-87 -105 -99 0 -3 23 -5 50 -5 62 0 182 -24 272 -54 54 -18 65 -19 55 -7 -43
55 -114 82 -242 91 l-90 7 105 4 c58 2 121 3 141 2 55 -2 131 -46 209 -119 76
-72 124 -154 135 -234 l7 -45 -36 70 c-20 39 -46 81 -59 95 -37 41 -87 80
-103 80 -12 0 -11 -6 6 -27 11 -16 36 -48 55 -73 47 -61 44 -69 -9 -23 -24 21
-80 60 -124 86 -71 43 -92 51 -179 64 -99 15 -220 12 -252 -7 -12 -7 -7 -9 21
-10 34 0 198 -46 198 -55 0 -2 -35 -1 -77 1 l-78 4 83 -24 c131 -38 198 -76
257 -146 19 -22 18 -22 -20 3 -54 37 -61 34 -29 -10 l28 -38 -35 32 c-44 41
-106 63 -194 69 l-70 5 58 -31 c31 -17 57 -34 57 -39 0 -8 -15 -6 -168 23
-123 23 -200 8 -264 -52 -30 -28 -39 -55 -10 -30 79 70 229 72 343 5 l54 -32
-105 -6 c-65 -4 -118 -12 -140 -22 l-35 -16 50 4 c71 7 26 -11 -51 -20 -56 -7
-104 -27 -104 -43 0 -4 35 -6 78 -4 53 2 72 0 61 -7 -8 -5 -46 -11 -85 -12
-39 -1 -86 -10 -108 -20 l-38 -17 38 -13 c43 -13 232 -18 277 -6 47 13 29 -6
-46 -49 -76 -44 -153 -74 -188 -74 -11 0 -18 -4 -15 -8 4 -8 53 -16 226 -39
l45 -5 -40 -16 c-57 -22 -258 -22 -305 0 -31 14 -33 16 -15 23 61 21 61 21
-10 43 -39 12 -81 30 -94 41 l-24 19 44 20 44 20 -52 1 -51 1 57 58 c45 45 63
72 84 130 15 41 47 105 72 143 25 38 45 72 45 74 0 3 -16 -1 -35 -9 -72 -30
-19 40 60 80 30 16 55 32 55 36 0 4 -30 8 -67 10 l-66 3 70 46 c95 64 141 86
263 130 111 40 170 52 115 23z m1680 -35 c55 -22 142 -68 194 -102 l95 -62
-62 -3 c-34 -2 -62 -6 -62 -10 0 -4 26 -21 57 -37 54 -30 131 -107 90 -92 -11
4 -31 10 -45 14 l-26 6 31 -39 c36 -46 61 -95 93 -184 18 -48 39 -80 80 -122
l56 -58 -48 0 c-60 0 -62 -12 -3 -28 25 -7 45 -15 45 -20 0 -9 -119 -56 -168
-67 -37 -8 -32 -21 8 -27 70 -9 -28 -45 -128 -47 -29 -1 -85 7 -125 16 l-72
17 80 13 c44 7 95 15 113 18 42 8 41 19 -5 33 -38 12 -199 110 -192 117 2 2
29 -1 59 -7 62 -11 180 -5 224 12 28 10 29 11 10 24 -11 8 -46 17 -79 21 -90
10 -109 18 -55 25 25 3 55 2 67 -2 38 -12 15 20 -29 43 -22 11 -37 15 -32 8 5
-9 -7 -11 -55 -6 -93 10 -115 30 -26 24 51 -4 62 -3 40 4 -34 10 -191 37 -245
42 l-35 3 60 29 c56 28 68 30 171 30 106 0 112 -1 150 -29 l39 -29 -35 37
c-19 21 -51 44 -70 53 -47 20 -160 20 -233 -2 -82 -24 -103 -17 -52 18 l40 27
-63 0 c-86 0 -147 -17 -183 -51 -17 -16 -29 -22 -25 -14 6 18 2 19 -25 4 -18
-9 -19 -9 -10 9 18 33 71 81 113 103 21 11 82 30 136 43 l97 24 -75 2 -75 1
40 16 c22 8 76 18 120 22 l80 7 -45 13 c-70 20 -254 17 -322 -6 -70 -24 -157
-76 -219 -131 -27 -24 -49 -41 -49 -37 0 13 34 71 63 108 37 48 29 58 -19 22
-37 -29 -92 -107 -125 -178 -24 -55 -24 -26 1 55 36 117 131 223 245 273 50
23 67 25 183 23 l127 -1 -95 -7 c-100 -7 -173 -34 -214 -79 -20 -22 -16 -27
12 -12 10 5 38 12 62 16 25 3 72 13 105 22 33 8 93 17 133 20 72 6 72 6 55 26
-10 11 -40 38 -68 60 l-50 40 35 -8 c19 -4 80 -25 135 -46z m-72 -46 c-7 -2
-19 -2 -25 0 -7 3 -2 5 12 5 14 0 19 -2 13 -5z m-764 -595 c-28 -73 -56 -148
-61 -166 -5 -18 -13 -30 -18 -27 -5 3 -21 42 -36 88 -15 45 -37 105 -49 133
-13 29 -26 67 -30 85 -7 33 -5 32 26 -16 17 -27 44 -75 58 -105 16 -35 27 -49
29 -37 2 9 9 17 16 17 6 0 17 15 24 34 15 40 86 149 90 137 2 -5 -20 -69 -49
-143z m403 -15 c23 -26 68 -73 98 -106 32 -35 109 -94 185 -145 154 -102 227
-173 276 -267 50 -97 67 -155 83 -282 21 -169 55 -223 172 -277 39 -19 91 -51
115 -72 l44 -39 -34 43 c-18 24 -59 64 -89 90 -105 88 -151 137 -158 167 l-7
30 25 -30 c14 -16 48 -45 74 -64 l49 -35 -53 57 c-65 69 -86 116 -111 240 -16
80 -65 237 -96 311 -17 40 250 -231 295 -300 51 -78 120 -229 180 -394 70
-191 97 -257 115 -281 l17 -24 -5 30 c-3 17 -12 58 -21 93 -8 34 -12 62 -9 62
7 0 119 -241 147 -319 31 -85 32 -100 9 -79 -10 8 -50 32 -89 52 -38 20 -103
63 -143 96 -41 33 -76 60 -78 60 -3 0 5 -15 16 -32 43 -66 70 -127 131 -298
57 -161 115 -380 101 -380 -3 0 -73 66 -155 148 -139 138 -146 143 -111 87 44
-69 75 -133 75 -155 0 -8 -10 0 -21 18 -12 18 -23 31 -24 30 -2 -2 3 -30 11
-63 12 -50 36 -343 29 -353 -2 -2 -8 21 -15 50 -20 87 -29 90 -30 11 0 -40 -4
-73 -9 -73 -5 0 -22 17 -37 37 l-29 38 -2 170 c-2 195 -16 272 -68 385 -39 85
-43 74 -20 -65 16 -95 19 -224 8 -314 l-6 -54 -17 64 c-16 62 -64 179 -73 179
-3 0 1 -21 9 -47 8 -26 16 -85 19 -132 5 -84 4 -85 -8 -41 l-13 45 -13 -53
c-7 -28 -16 -54 -21 -57 -4 -2 -10 30 -13 73 -3 42 -22 133 -42 202 -20 70
-40 167 -45 220 -9 99 -22 156 -46 203 -21 39 -6 33 49 -20 29 -29 45 -39 38
-25 -7 12 -40 44 -74 71 -34 27 -72 67 -84 88 -19 34 -48 161 -39 170 2 2 15
-20 30 -49 14 -29 57 -88 95 -131 71 -80 85 -108 137 -269 15 -48 29 -86 31
-85 1 2 -6 60 -16 128 -21 146 -44 204 -124 310 -55 74 -77 115 -77 147 0 12
6 9 18 -11 25 -37 73 -72 157 -113 69 -35 70 -35 39 -7 -17 15 -59 49 -92 75
-80 63 -106 109 -132 242 -11 60 -28 125 -38 145 l-16 36 -7 -130 c-7 -149
-20 -194 -80 -271 -53 -69 -59 -73 -119 -89 -29 -8 -61 -22 -72 -32 -21 -18
-21 -18 -8 7 7 14 38 61 67 104 109 159 147 261 145 386 0 47 -5 99 -11 115
-8 26 -9 21 -10 -35 -2 -128 -54 -261 -121 -306 -40 -28 -115 -33 -146 -9 -10
8 -22 15 -26 15 -17 0 -7 -74 21 -162 34 -108 44 -179 32 -228 -9 -39 -7 -44
-32 69 -6 30 -31 106 -55 169 -36 94 -44 127 -44 181 0 84 13 103 116 180 44
32 98 79 121 103 48 53 103 186 103 250 l0 43 -36 -53 c-48 -72 -83 -92 -162
-92 -34 0 -79 -7 -99 -15 -19 -8 -36 -15 -38 -15 -1 0 7 26 18 58 20 57 20 60
4 128 -23 92 -71 170 -126 205 -38 24 -55 29 -105 28 l-61 -2 50 -6 c28 -4 60
-12 71 -18 35 -20 85 -83 112 -141 40 -87 30 -147 -51 -314 -95 -193 -102
-242 -57 -383 l19 -60 -2 97 c-1 65 3 102 11 110 16 16 21 9 38 -63 8 -35 36
-101 64 -148 57 -101 78 -168 87 -271 11 -148 -50 -256 -183 -321 -35 -17 -64
-33 -64 -34 0 -1 19 1 43 6 23 4 47 8 53 9 24 1 135 82 155 112 l20 33 -5 -30
c-3 -16 -8 -59 -12 -95 -19 -187 -120 -293 -279 -294 -81 0 -145 27 -207 88
-45 44 -50 85 -17 153 25 52 64 84 189 154 52 29 116 74 141 99 63 63 92 154
73 228 -8 27 -24 29 -24 4 0 -28 -39 -94 -88 -148 -36 -40 -42 -44 -40 -24 2
17 -4 28 -22 37 -37 19 -83 16 -203 -14 l-107 -27 -83 27 c-130 42 -224 32
-214 -22 4 -21 -6 -14 -57 40 -48 50 -66 78 -76 115 l-12 49 -14 -30 c-38 -86
12 -213 112 -284 24 -18 79 -48 122 -66 96 -42 139 -76 163 -129 25 -55 25
-126 0 -158 -11 -13 -47 -39 -81 -57 -136 -72 -266 -45 -358 74 -43 57 -60
108 -67 212 l-7 88 20 -31 c36 -56 126 -106 212 -118 l45 -6 -55 25 c-80 38
-132 86 -171 157 -30 56 -34 71 -34 138 1 101 25 184 90 312 39 79 56 124 61
168 4 33 11 60 16 60 5 0 16 -16 24 -35 12 -29 13 -51 5 -113 -5 -42 -8 -78
-6 -80 6 -6 36 95 46 157 8 55 7 69 -17 139 -14 42 -49 124 -77 181 -74 152
-75 230 -6 335 41 61 94 96 161 106 39 5 45 8 23 10 -131 12 -219 -55 -260
-198 -17 -57 -17 -166 0 -206 8 -17 6 -17 -23 -2 -23 12 -46 14 -90 10 -75 -8
-116 14 -163 87 -18 27 -37 49 -42 49 -17 0 -1 -83 32 -162 39 -92 91 -154
197 -234 87 -65 104 -95 104 -182 0 -43 -11 -90 -44 -182 -24 -69 -49 -152
-56 -185 -16 -81 -26 -98 -36 -61 -9 39 11 175 42 271 17 54 23 91 19 113 -6
31 -7 32 -28 17 -27 -19 -90 -19 -126 0 -82 42 -149 186 -152 329 l-1 41 -10
-35 c-14 -49 -3 -173 23 -247 11 -35 43 -100 71 -145 28 -46 64 -107 81 -137
l30 -54 -49 8 c-58 8 -75 19 -127 82 -69 84 -97 175 -97 320 0 51 -4 83 -9 78
-16 -18 -48 -119 -60 -189 -18 -106 -49 -157 -134 -220 -39 -30 -78 -64 -85
-76 -12 -20 -11 -19 25 3 21 13 60 34 86 48 27 13 62 38 78 57 43 49 39 8 -6
-54 -132 -186 -146 -217 -169 -384 -9 -62 -14 -115 -13 -117 2 -2 18 45 36
104 40 130 64 174 142 258 33 35 71 86 84 112 23 46 24 47 24 17 1 -17 -6 -55
-15 -85 -14 -46 -27 -65 -91 -124 -41 -38 -79 -79 -85 -90 -6 -11 13 3 42 30
35 33 50 43 46 30 -26 -95 -45 -180 -51 -230 -3 -33 -22 -118 -40 -190 -19
-71 -38 -163 -41 -203 -4 -40 -9 -70 -11 -68 -3 2 -10 26 -18 53 l-13 48 -7
-42 c-4 -24 -12 -43 -18 -43 -13 0 -2 137 17 208 8 28 11 50 7 47 -9 -5 -66
-154 -77 -200 -6 -27 -9 -23 -21 40 -16 77 -12 233 7 322 21 98 7 104 -27 13
-47 -122 -53 -156 -60 -340 -5 -152 -8 -169 -32 -215 l-26 -50 -3 55 c-4 79
-16 80 -31 5 -7 -36 -16 -67 -20 -69 -8 -5 4 307 13 354 4 19 10 44 12 55 4
16 -1 14 -21 -10 -26 -29 -26 -29 -20 -5 11 38 52 110 97 171 33 44 17 32 -83
-65 -68 -65 -139 -135 -157 -155 l-33 -36 7 50 c23 172 126 486 191 584 24 35
42 66 40 68 -2 2 -39 -26 -83 -62 -43 -36 -108 -79 -144 -96 -36 -17 -73 -38
-82 -47 -22 -19 -22 -20 1 53 40 128 147 355 166 355 3 0 -11 -44 -30 -97
l-34 -98 28 31 c17 19 51 93 90 200 80 219 94 253 145 349 64 122 134 210 256
324 l112 104 -25 -49 c-33 -65 -60 -155 -87 -289 -27 -134 -37 -154 -109 -229
-67 -70 -32 -57 47 17 48 46 52 48 42 21 -15 -40 -31 -55 -136 -139 -81 -65
-146 -132 -169 -175 -4 -8 19 11 51 42 40 39 84 68 134 91 120 55 154 111 175
291 17 141 39 210 97 296 46 69 166 173 308 265 91 59 151 115 234 218 33 40
43 47 75 47 58 0 174 -62 246 -131 66 -63 97 -119 110 -199 7 -43 7 -44 -11
-29 -36 31 -49 33 -20 4 16 -17 43 -59 61 -94 l33 -64 30 59 c29 56 78 112
132 148 13 9 20 16 14 16 -13 0 -53 -27 -90 -62 l-32 -30 5 49 c12 117 108
232 254 303 46 22 91 40 100 40 9 0 37 -21 61 -47z m-1173 -15 l36 -23 -75 -6
c-196 -16 -228 -8 -119 31 71 25 114 25 158 -2z m1527 -2 c75 -27 109 -52 59
-43 -16 3 -79 9 -138 12 -60 4 -105 10 -102 13 8 8 86 40 102 41 7 1 42 -10
79 -23z m-2145 -281 c24 -14 62 -30 83 -36 l39 -11 -64 -22 c-35 -13 -83 -32
-106 -44 -58 -30 -230 -161 -278 -213 -34 -36 -30 -34 31 17 60 49 185 124
208 124 4 0 -7 -23 -23 -51 -27 -47 -37 -55 -121 -95 -51 -24 -115 -60 -141
-79 -27 -19 -49 -33 -49 -31 0 2 14 35 30 72 56 124 172 268 284 351 32 23 59
43 61 43 2 0 23 -11 46 -25z m2704 -5 c145 -100 249 -236 334 -435 2 -5 -10 2
-27 17 -39 32 -143 90 -204 113 -30 11 -50 25 -54 39 -3 11 -18 36 -31 54 -14
18 -23 35 -21 37 7 7 192 -113 241 -155 26 -23 44 -35 41 -27 -7 20 -143 134
-224 188 -36 24 -106 65 -157 90 l-92 47 37 6 c20 3 53 17 72 30 19 14 36 25
38 26 2 0 23 -14 47 -30z m-1895 -451 c0 -18 4 -21 29 -16 24 5 30 2 35 -16
15 -57 -76 -71 -146 -21 -24 17 -44 39 -46 52 -3 21 0 22 62 22 61 0 66 -2 66
-21z m1140 10 c0 -24 -76 -87 -115 -95 -49 -9 -89 5 -93 33 -3 23 29 63 50 63
6 0 4 -6 -7 -13 -13 -10 -15 -16 -6 -21 6 -4 21 4 34 18 19 22 30 26 80 26 35
0 57 -4 57 -11z m868 -111 c22 -29 52 -75 67 -103 l27 -50 -32 35 c-29 33
-114 170 -105 170 2 0 22 -24 43 -52z m-3004 -5 c-41 -71 -80 -127 -100 -144
-11 -8 -6 3 11 31 39 62 107 160 112 160 2 0 -8 -21 -23 -47z m-192 -335 c-75
-110 -163 -310 -207 -470 -9 -32 -18 -58 -20 -58 -9 0 10 84 42 185 48 149
119 288 186 363 31 34 31 26 -1 -20z m3410 -23 c72 -101 139 -259 182 -429 24
-94 2 -52 -44 84 -40 122 -111 279 -166 370 -33 54 -20 43 28 -25z m-2568
-335 c0 -97 -18 -148 -83 -235 -57 -76 -82 -131 -87 -194 l-4 -56 15 54 c23
80 41 113 100 181 30 35 61 81 69 104 l14 41 1 -58 c1 -31 -10 -108 -23 -170
-13 -61 -27 -142 -31 -178 -7 -68 12 -289 25 -289 4 0 10 31 14 69 5 63 68
267 101 332 17 32 73 81 88 76 6 -2 24 -42 39 -89 20 -59 41 -100 67 -130 29
-33 48 -75 85 -183 70 -202 65 -195 135 -195 106 0 178 -70 272 -262 l52 -107
48 97 c26 53 71 127 99 164 60 79 111 108 189 108 l52 0 34 73 c18 39 45 113
60 162 15 50 37 101 50 115 31 34 59 92 85 178 12 39 25 72 29 72 17 0 53 -35
70 -68 31 -62 110 -304 117 -360 11 -90 24 -44 30 113 5 133 4 161 -16 250
-13 55 -25 143 -26 195 l-4 95 21 -45 c11 -25 40 -70 63 -100 51 -65 73 -106
98 -180 l18 -55 -6 48 c-7 61 -34 125 -83 197 -84 123 -106 195 -89 292 6 32
13 58 17 58 3 0 26 -51 50 -113 24 -61 70 -166 103 -232 79 -160 90 -224 59
-345 -22 -89 -40 -123 -33 -66 2 19 -1 42 -6 52 -9 15 -12 11 -22 -26 -24 -93
-125 -308 -173 -370 -16 -20 -18 -21 -13 -5 7 24 26 124 26 137 0 5 -5 8 -12
6 -6 -2 -19 -42 -29 -89 -14 -70 -61 -199 -72 -199 -1 0 -1 33 0 72 l3 73 -28
-75 c-70 -182 -92 -209 -269 -323 -6 -4 4 19 23 50 42 70 91 224 99 313 7 71
-8 66 -19 -8 -10 -68 -36 -123 -55 -118 -11 3 -27 -12 -51 -51 -30 -48 -213
-232 -240 -241 -21 -7 -8 26 34 96 48 77 47 91 -3 41 -98 -97 -172 -218 -225
-364 -6 -16 -14 -1 -39 65 -37 96 -112 211 -187 285 l-51 50 46 -88 c26 -48
45 -91 43 -96 -2 -5 -25 11 -53 36 -133 120 -193 185 -227 243 -31 52 -38 60
-39 40 0 -20 -3 -18 -15 15 -9 22 -24 72 -34 110 -19 70 -19 70 -19 25 -1 -95
50 -276 99 -354 16 -25 26 -46 21 -46 -14 0 -79 79 -112 135 -16 28 -29 44
-29 37 0 -17 28 -71 49 -96 13 -16 13 -18 1 -11 -78 44 -121 111 -162 251
l-23 79 -7 -40 c-4 -22 -5 -56 -2 -75 7 -50 -48 75 -75 171 -11 40 -25 77 -31
83 -16 16 -13 -5 15 -91 13 -42 23 -79 21 -81 -15 -14 -177 284 -210 386 -21
63 -31 67 -23 10 l6 -43 -19 40 c-10 22 -24 69 -31 106 -16 93 -3 144 90 339
44 91 90 198 102 237 21 63 25 70 33 50 5 -12 10 -60 10 -107z m709 34 c73
-33 86 -36 146 -31 41 3 94 17 140 36 90 38 113 40 46 5 -111 -59 -150 -106
-175 -211 -6 -29 -15 -53 -20 -53 -4 0 -13 27 -20 59 -7 33 -21 73 -31 90 -18
30 -148 125 -184 134 -19 4 -19 5 -1 6 10 0 55 -15 99 -35z m-519 -245 c19
-104 19 -99 2 -99 -8 0 -42 -25 -75 -56 -34 -31 -61 -54 -61 -52 0 20 38 124
70 190 22 45 40 89 40 97 0 31 9 2 24 -80z m1370 -12 c38 -82 80 -197 73 -204
-2 -1 -34 27 -71 63 l-67 66 7 79 c3 43 9 79 13 79 3 0 23 -37 45 -83z m-2464
-22 c-28 -88 -50 -235 -50 -333 0 -58 -32 -162 -38 -123 -5 35 16 212 39 316
18 85 68 239 75 232 2 -1 -10 -43 -26 -92z m1799 -229 c72 -53 177 -103 267
-127 46 -12 85 -28 88 -35 13 -35 -53 -164 -84 -164 -11 0 -36 8 -55 17 -35
17 -37 17 -81 -7 -50 -26 -112 -91 -151 -158 l-25 -43 -36 53 c-45 68 -68 94
-116 129 -43 32 -76 36 -139 17 -39 -12 -41 -11 -67 21 -29 34 -56 111 -47
134 3 7 40 23 83 36 97 28 227 89 274 130 19 17 37 30 39 31 2 0 24 -15 50
-34z m-1284 -411 c-21 -74 -25 -81 -20 -40 6 57 38 168 42 145 2 -8 -9 -55
-22 -105z m2484 -4 c6 -29 11 -60 10 -69 -1 -20 -49 146 -48 168 0 24 26 -42
38 -99z m-213 -71 c5 -62 2 -86 -15 -139 -12 -35 -34 -80 -48 -100 -14 -20
-22 -27 -18 -16 25 68 46 173 52 253 3 51 10 89 14 85 5 -5 12 -42 15 -83z
m-2021 -155 c8 -38 17 -81 20 -95 3 -14 -10 4 -29 40 -44 83 -52 134 -35 224
l13 71 8 -85 c5 -47 15 -116 23 -155z"/>
<path d="M3336 3195 c8 -37 14 -45 14 -19 0 10 -5 26 -10 34 -8 11 -9 7 -4
-15z"/>
<path d="M3618 2643 c11 -21 29 -69 42 -108 26 -79 64 -160 81 -170 6 -4 2 10
-9 31 -11 22 -31 71 -45 111 -27 75 -74 173 -82 173 -3 0 3 -17 13 -37z"/>
<path d="M1491 2641 c-18 -24 -65 -142 -96 -236 -19 -59 30 48 56 122 17 49
40 100 51 116 11 15 17 27 14 27 -2 0 -14 -13 -25 -29z"/>
<path d="M1250 2338 c-24 -56 -60 -157 -60 -167 1 -14 23 35 55 121 38 101 41
129 5 46z"/>
<path d="M3875 2301 c32 -85 64 -154 65 -139 0 14 -81 218 -90 223 -4 3 7 -35
25 -84z"/>
<path d="M4061 2113 c6 -15 26 -84 45 -153 34 -119 51 -166 59 -158 6 6 -23
141 -43 198 -21 59 -59 140 -67 140 -2 0 0 -12 6 -27z"/>
<path d="M1013 2033 c-45 -100 -93 -308 -55 -236 13 24 93 296 88 300 -2 2
-17 -27 -33 -64z"/>
<path d="M1815 1485 c-9 -31 -15 -58 -12 -61 2 -2 11 21 20 53 9 31 15 59 12
61 -2 2 -11 -21 -20 -53z"/>
<path d="M3284 1515 c16 -69 28 -107 31 -103 5 5 -25 121 -32 128 -3 3 -3 -8
1 -25z"/>
<path d="M3133 1380 c0 -25 2 -35 4 -22 2 12 2 32 0 45 -2 12 -4 2 -4 -23z"/>
<path d="M1980 1399 c-1 -8 -7 -50 -15 -94 -16 -90 -18 -125 -4 -80 12 40 30
177 24 183 -3 3 -5 -1 -5 -9z"/>
<path d="M3142 1310 c0 -14 4 -36 8 -50 6 -20 8 -21 8 -5 0 11 -4 34 -8 50 -7
27 -8 27 -8 5z"/>
<path d="M3120 818 c-19 -33 -36 -65 -38 -71 -6 -20 38 36 59 76 33 64 17 59
-21 -5z"/>
</g>
</svg>